<?xml version="1.0" encoding="UTF-8" standalone="no"?><svg xmlns="http://www.w3.org/2000/svg" xmlns:xlink="http://www.w3.org/1999/xlink" contentScriptType="application/ecmascript" contentStyleType="text/css" height="416px" preserveAspectRatio="none" style="width:302px;height:416px;" version="1.1" viewBox="0 0 302 416" width="302px" zoomAndPan="magnify"><defs><filter height="300%" id="f190t3fpn4cgua" width="300%" x="-1" y="-1"><feGaussianBlur result="blurOut" stdDeviation="2.0"/><feColorMatrix in="blurOut" result="blurOut2" type="matrix" values="0 0 0 0 0 0 0 0 0 0 0 0 0 0 0 0 0 0 .4 0"/><feOffset dx="4.0" dy="4.0" in="blurOut2" result="blurOut3"/><feBlend in="SourceGraphic" in2="blurOut3" mode="normal"/></filter></defs><g><ellipse cx="159" cy="20" fill="#000000" filter="url(#f190t3fpn4cgua)" rx="10" ry="10" style="stroke: none; stroke-width: 1.0;"/><rect fill="#FEFECE" filter="url(#f190t3fpn4cgua)" height="33.9688" rx="12.5" ry="12.5" style="stroke: #A80036; stroke-width: 1.5;" width="84" x="117" y="50"/><text fill="#000000" font-family="sans-serif" font-size="12" lengthAdjust="spacingAndGlyphs" textLength="64" x="127" y="71.1387">Select pet</text><rect fill="#FEFECE" filter="url(#f190t3fpn4cgua)" height="33.9688" rx="12.5" ry="12.5" style="stroke: #A80036; stroke-width: 1.5;" width="90" x="114" y="103.9688"/><text fill="#000000" font-family="sans-serif" font-size="12" lengthAdjust="spacingAndGlyphs" textLength="70" x="124" y="125.1074">Add to cart</text><rect fill="#FEFECE" filter="url(#f190t3fpn4cgua)" height="33.9688" rx="12.5" ry="12.5" style="stroke: #A80036; stroke-width: 1.5;" width="100" x="109" y="157.9375"/><text fill="#000000" font-family="sans-serif" font-size="12" lengthAdjust="spacingAndGlyphs" textLength="80" x="119" y="179.0762">Create order</text><polygon fill="#FEFECE" filter="url(#f190t3fpn4cgua)" points="99,211.9063,219,211.9063,231,223.9063,219,235.9063,99,235.9063,87,223.9063,99,211.9063" style="stroke: #A80036; stroke-width: 1.5;"/><text fill="#000000" font-family="sans-serif" font-size="11" lengthAdjust="spacingAndGlyphs" textLength="120" x="99" y="227.7144">Payment successful?</text><text fill="#000000" font-family="sans-serif" font-size="11" lengthAdjust="spacingAndGlyphs" textLength="20" x="67" y="221.312">yes</text><text fill="#000000" font-family="sans-serif" font-size="11" lengthAdjust="spacingAndGlyphs" textLength="14" x="231" y="221.312">no</text><rect fill="#FEFECE" filter="url(#f190t3fpn4cgua)" height="33.9688" rx="12.5" ry="12.5" style="stroke: #A80036; stroke-width: 1.5;" width="105" x="24.5" y="245.9063"/><text fill="#000000" font-family="sans-serif" font-size="12" lengthAdjust="spacingAndGlyphs" textLength="85" x="34.5" y="267.0449">Confirm order</text><rect fill="#FEFECE" filter="url(#f190t3fpn4cgua)" height="33.9688" rx="12.5" ry="12.5" style="stroke: #A80036; stroke-width: 1.5;" width="134" x="10" y="299.875"/><text fill="#000000" font-family="sans-serif" font-size="12" lengthAdjust="spacingAndGlyphs" textLength="114" x="20" y="321.0137">Send confirmation</text><rect fill="#FEFECE" filter="url(#f190t3fpn4cgua)" height="33.9688" rx="12.5" ry="12.5" style="stroke: #A80036; stroke-width: 1.5;" width="100" x="191" y="245.9063"/><text fill="#000000" font-family="sans-serif" font-size="12" lengthAdjust="spacingAndGlyphs" textLength="80" x="201" y="267.0449">Cancel order</text><polygon fill="#FEFECE" filter="url(#f190t3fpn4cgua)" points="159,339.8438,171,351.8438,159,363.8438,147,351.8438,159,339.8438" style="stroke: #A80036; stroke-width: 1.5;"/><ellipse cx="159" cy="394.8438" fill="#FFFFFF" filter="url(#f190t3fpn4cgua)" rx="11" ry="11" style="stroke: #000000; stroke-width: 1.0;"/><ellipse cx="159" cy="394.8438" fill="#000000" rx="6" ry="6" style="stroke: #7F7F7F; stroke-width: 1.0;"/><line style="stroke: #A80036; stroke-width: 1.5;" x1="159" x2="159" y1="30" y2="50"/><polygon fill="#A80036" points="155,40,159,50,163,40,159,44" style="stroke: #A80036; stroke-width: 1.0;"/><line style="stroke: #A80036; stroke-width: 1.5;" x1="159" x2="159" y1="83.9688" y2="103.9688"/><polygon fill="#A80036" points="155,93.9688,159,103.9688,163,93.9688,159,97.9688" style="stroke: #A80036; stroke-width: 1.0;"/><line style="stroke: #A80036; stroke-width: 1.5;" x1="159" x2="159" y1="137.9375" y2="157.9375"/><polygon fill="#A80036" points="155,147.9375,159,157.9375,163,147.9375,159,151.9375" style="stroke: #A80036; stroke-width: 1.0;"/><line style="stroke: #A80036; stroke-width: 1.5;" x1="77" x2="77" y1="279.875" y2="299.875"/><polygon fill="#A80036" points="73,289.875,77,299.875,81,289.875,77,293.875" style="stroke: #A80036; stroke-width: 1.0;"/><line style="stroke: #A80036; stroke-width: 1.5;" x1="87" x2="77" y1="223.9063" y2="223.9063"/><line style="stroke: #A80036; stroke-width: 1.5;" x1="77" x2="77" y1="223.9063" y2="245.9063"/><polygon fill="#A80036" points="73,235.9063,77,245.9063,81,235.9063,77,239.9063" style="stroke: #A80036; stroke-width: 1.0;"/><line style="stroke: #A80036; stroke-width: 1.5;" x1="231" x2="241" y1="223.9063" y2="223.9063"/><line style="stroke: #A80036; stroke-width: 1.5;" x1="241" x2="241" y1="223.9063" y2="245.9063"/><polygon fill="#A80036" points="237,235.9063,241,245.9063,245,235.9063,241,239.9063" style="stroke: #A80036; stroke-width: 1.0;"/><line style="stroke: #A80036; stroke-width: 1.5;" x1="77" x2="77" y1="333.8438" y2="351.8438"/><line style="stroke: #A80036; stroke-width: 1.5;" x1="77" x2="147" y1="351.8438" y2="351.8438"/><polygon fill="#A80036" points="137,347.8438,147,351.8438,137,355.8438,141,351.8438" style="stroke: #A80036; stroke-width: 1.0;"/><line style="stroke: #A80036; stroke-width: 1.5;" x1="241" x2="241" y1="279.875" y2="351.8438"/><line style="stroke: #A80036; stroke-width: 1.5;" x1="241" x2="171" y1="351.8438" y2="351.8438"/><polygon fill="#A80036" points="181,347.8438,171,351.8438,181,355.8438,177,351.8438" style="stroke: #A80036; stroke-width: 1.0;"/><line style="stroke: #A80036; stroke-width: 1.5;" x1="159" x2="159" y1="191.9063" y2="211.9063"/><polygon fill="#A80036" points="155,201.9063,159,211.9063,163,201.9063,159,205.9063" style="stroke: #A80036; stroke-width: 1.0;"/><line style="stroke: #A80036; stroke-width: 1.5;" x1="159" x2="159" y1="363.8438" y2="383.8438"/><polygon fill="#A80036" points="155,373.8438,159,383.8438,163,373.8438,159,377.8438" style="stroke: #A80036; stroke-width: 1.0;"/><!--MD5=[b561b8dedec2385d780bf9f19a0bd9f9]
@startuml
start
:Select pet;
:Add to cart;
:Create order;
if (Payment successful?) then (yes)
  :Confirm order;
  :Send confirmation;
else (no)
  :Cancel order;
endif
stop
@enduml

PlantUML version 1.2020.02(Sun Mar 01 10:22:07 UTC 2020)
(GPL source distribution)
Java Runtime: OpenJDK Runtime Environment
JVM: OpenJDK 64-Bit Server VM
Java Version: 17.0.18+8
Operating System: Linux
Default Encoding: UTF-8
Language: en
Country: null
--></g></svg>